<svg xmlns="http://www.w3.org/2000/svg" width="340" height="180" viewBox="0 0 340 180" xmlns:xlink="http://www.w3.org/1999/xlink">
  <defs>
    <path id="a" d="M0 179.125h339.61V0H0z"/>
  </defs>
  <g fill="none" fill-rule="evenodd">
    <path fill="#FFF" d="M257.642 167.702H27.92V13.328c0-6.716 5.493-12.21 12.21-12.21h205.3c6.716 0 12.21 5.494 12.21 12.21v154.374z"/>
    <path stroke="#C4C4C4" stroke-width="2" d="M257.642 167.702H27.92V13.328c0-6.716 5.493-12.21 12.21-12.21h205.3c6.716 0 12.21 5.494 12.21 12.21v154.374z"/>
    <path fill="#F8F8F8" d="M267.388 178.007H9.518c-4.62 0-8.4-3.78-8.4-8.4v-9.966h274.67v9.97c0 4.62-3.78 8.4-8.4 8.4"/>
    <path stroke="#C4C4C4" stroke-width="2" d="M267.388 178.007H9.518c-4.62 0-8.4-3.78-8.4-8.4v-9.966h274.67v9.97c0 4.62-3.78 8.4-8.4 8.4z"/>
    <mask id="b" fill="#fff">
      <use xlink:href="#a"/>
    </mask>
    <path fill="#FFF" d="M38.13 148.69h209.3V14.17H38.13m237.66 154.856H1.116v-9.385H275.79" mask="url(#b)"/>
    <path stroke="#F8F8F8" d="M275.79 169.026H1.116v-9.385H275.79z" mask="url(#b)"/>
    <path stroke="#C4C4C4" stroke-width="2" d="M266.325 178.007H10.582c-5.206 0-9.464-4.26-9.464-9.464v-8.902h274.67v8.91c0 5.205-4.258 9.464-9.463 9.464z" mask="url(#b)"/>
    <path fill="#FFF" d="M99.367 148.69h133.34V24.9H99.367" mask="url(#b)"/>
    <path fill="#F8F8F8" d="M38.123 150.9h61.244V24.97H38.123" mask="url(#b)"/>
    <path fill="#E0E0E0" d="M49.674 36.624h36.12v-5.4h-36.12m0 16.2h36.12v-5.4h-36.12m0 16.196h36.12v-5.398h-36.12m60.86-16.198h33.45v-5.4h-33.45m9.286 16.2h90.758v-5.4H119.82m0 16.196h76.08v-5.398h-76.08m0 16.196h90.758v-5.4H119.82m0 16.2h76.08v-5.4h-76.08m0 16.197h51.43v-5.4h-51.43m0 16.198h90.758v-5.4H119.82m0 16.2h60.688v-5.4H119.82m0 16.197h90.758v-5.4H119.82M60.28 79.817h13.502v-5.4H60.28m0 16.198h27.004v-5.4H60.28m0 16.198h19.99v-5.4H60.28m0 16.2h17.225v-5.4H60.28M49.674 66.32H62.47v-2.7H49.675m6.47 13.728c0 1.62-1.312 2.93-2.93 2.93-1.62 0-2.93-1.31-2.93-2.93 0-1.618 1.312-2.93 2.93-2.93s2.93 1.312 2.93 2.93m0 10.567c0 1.62-1.312 2.93-2.93 2.93-1.62 0-2.93-1.31-2.93-2.93 0-1.618 1.312-2.93 2.93-2.93s2.93 1.312 2.93 2.93m0 10.567c0 1.62-1.312 2.93-2.93 2.93-1.62 0-2.93-1.31-2.93-2.93 0-1.618 1.312-2.93 2.93-2.93s2.93 1.312 2.93 2.93m0 10.568c0 1.618-1.312 2.93-2.93 2.93-1.62 0-2.93-1.312-2.93-2.93 0-1.62 1.312-2.93 2.93-2.93s2.93 1.31 2.93 2.93" mask="url(#b)"/>
    <path stroke="#E0E0E0" stroke-width=".706" d="M110.534 44.723c0 1.49 1.21 2.7 2.7 2.7 1.49 0 2.7-1.21 2.7-2.7 0-1.49-1.21-2.7-2.7-2.7-1.49 0-2.7 1.21-2.7 2.7zm0 10.797c0 1.492 1.21 2.7 2.7 2.7 1.49 0 2.7-1.208 2.7-2.7 0-1.49-1.21-2.7-2.7-2.7-1.49 0-2.7 1.21-2.7 2.7zm0 10.8c0 1.49 1.21 2.7 2.7 2.7 1.49 0 2.7-1.21 2.7-2.7 0-1.492-1.21-2.7-2.7-2.7-1.49 0-2.7 1.208-2.7 2.7zm0 10.797c0 1.492 1.21 2.7 2.7 2.7 1.49 0 2.7-1.208 2.7-2.7 0-1.49-1.21-2.7-2.7-2.7-1.49 0-2.7 1.21-2.7 2.7zm0 10.798c0 1.492 1.21 2.7 2.7 2.7 1.49 0 2.7-1.208 2.7-2.7 0-1.49-1.21-2.7-2.7-2.7-1.49 0-2.7 1.21-2.7 2.7zm0 10.8c0 1.49 1.21 2.7 2.7 2.7 1.49 0 2.7-1.21 2.7-2.7 0-1.493-1.21-2.7-2.7-2.7-1.49 0-2.7 1.207-2.7 2.7zm0 10.797c0 1.49 1.21 2.7 2.7 2.7 1.49 0 2.7-1.21 2.7-2.7 0-1.492-1.21-2.7-2.7-2.7-1.49 0-2.7 1.208-2.7 2.7zm0 10.798c0 1.49 1.21 2.7 2.7 2.7 1.49 0 2.7-1.21 2.7-2.7 0-1.492-1.21-2.7-2.7-2.7-1.49 0-2.7 1.208-2.7 2.7z" mask="url(#b)"/>
    <path fill="#F96959" d="M38.122 24.484h209.31v-9.387H38.122" mask="url(#b)"/>
    <path stroke="#C4C4C4" stroke-width="2" d="M38.13 148.69h209.3V14.17H38.13z" mask="url(#b)"/>
    <path fill="#FFF" d="M303.986 178.007H212.43c-4.198 0-7.632-3.435-7.632-7.633V33.137c0-4.197 3.434-7.633 7.633-7.633h91.56c4.2 0 7.63 3.436 7.63 7.633v137.237c0 4.198-3.43 7.633-7.63 7.633" mask="url(#b)"/>
    <path stroke="#C4C4C4" stroke-width="2" d="M303.986 178.007H212.43c-4.198 0-7.632-3.435-7.632-7.633V33.137c0-4.197 3.434-7.633 7.633-7.633h91.56c4.2 0 7.63 3.436 7.63 7.633v137.237c0 4.198-3.43 7.633-7.63 7.633z" mask="url(#b)"/>
    <path fill="#F8F8F8" d="M261.586 168.19c0 1.865-1.513 3.378-3.378 3.378-1.865 0-3.378-1.513-3.378-3.377 0-1.86 1.513-3.37 3.378-3.37 1.865 0 3.378 1.513 3.378 3.378" mask="url(#b)"/>
    <path stroke="#C4C4C4" stroke-width="2" d="M261.586 168.19c0 1.865-1.513 3.378-3.378 3.378-1.865 0-3.378-1.513-3.378-3.377 0-1.86 1.513-3.37 3.378-3.37 1.865 0 3.378 1.513 3.378 3.378z" mask="url(#b)"/>
    <path fill="#FFF" d="M214.677 159.64h86.946V42.83h-86.946" mask="url(#b)"/>
    <path fill="#F8F8F8" d="M214.68 159.64h31.672V51.384H214.68" mask="url(#b)"/>
    <path fill="#FFF" d="M246.35 159.64h55.273V51.384H246.35" mask="url(#b)"/>
    <path fill="#E0E0E0" d="M218.627 60.417h24.354v-3.64h-24.35m0 10.92h24.358v-3.64H218.63m33.166-3.64h13.422v-3.64h-13.422m0 10.92h40.652v-3.64h-40.652m0 10.92h26.28v-3.64h-26.28m0 10.923h40.652v-3.64h-40.652m0 10.92h26.28V85.9h-26.28m0 10.92h40.652v-3.64h-40.652m0 10.92h36.092v-3.64h-36.093m0 10.922h40.653v-3.64h-40.652m0 10.92h26.28v-3.64h-26.28M218.63 74.978h24.353v-3.64H218.63m7.15 18.202h9.104V85.9h-9.104m0 10.92h18.208v-3.64H225.78m0 10.92h13.48v-3.64h-13.48m-7.15-20.02h8.63v-1.82h-8.63m4.362 9.256c0 1.09-.884 1.975-1.975 1.975-1.092 0-1.976-.88-1.976-1.97 0-1.09.888-1.973 1.98-1.973 1.09 0 1.976.886 1.976 1.977m0 7.123c0 1.092-.883 1.976-1.974 1.976-1.092 0-1.976-.884-1.976-1.975 0-1.09.882-1.974 1.974-1.974 1.09 0 1.976.883 1.976 1.975m0 7.122c0 1.093-.884 1.977-1.975 1.977-1.092 0-1.976-.883-1.976-1.975 0-1.09.88-1.977 1.974-1.977 1.09 0 1.976.885 1.976 1.976m0 7.123c0 1.09-.885 1.976-1.976 1.976-1.092 0-1.976-.883-1.976-1.974 0-1.09.883-1.976 1.975-1.976 1.09 0 1.976.887 1.976 1.978" mask="url(#b)"/>
    <path fill="#F86959" d="M214.677 52.82h86.946v-8.944h-86.946" mask="url(#b)"/>
    <path stroke="#C4C4C4" stroke-width="2" d="M214.677 159.64h86.946V42.83h-86.946z" mask="url(#b)"/>
    <path fill="#F8F8F8" d="M282.335 176.884h-9.087c-2.046 0-3.705-1.66-3.705-3.705v-12.36h12.792v16.056z" mask="url(#b)"/>
    <path fill="#FFF" d="M322.03 178.007h-40.814c-2.66 0-4.838-2.124-4.838-4.717V83.116c0-2.593 2.177-4.716 4.838-4.716l12.7-.43c5.137-.172 10.278-.172 15.416 0l12.7.43c2.66 0 4.837 2.123 4.837 4.716v90.174c0 2.593-2.18 4.717-4.84 4.717" mask="url(#b)"/>
    <path stroke="#C4C4C4" stroke-width="2" d="M322.03 178.007h-40.814c-2.66 0-4.838-2.124-4.838-4.717V83.116c0-2.593 2.177-4.716 4.838-4.716l12.7-.43c5.137-.172 10.278-.172 15.416 0l12.7.43c2.66 0 4.837 2.123 4.837 4.716v90.174c0 2.593-2.18 4.717-4.84 4.717z" mask="url(#b)"/>
    <path fill="#FFF" d="M281.663 159.64h39.92V86.47h-39.92" mask="url(#b)"/>
    <path stroke="#C4C4C4" stroke-width="2" d="M281.663 159.64h39.92V86.47h-39.92z" mask="url(#b)"/>
    <path fill="#B3B3B3" d="M302.742 82.407c0 .617-.5 1.118-1.118 1.118-.618 0-1.118-.5-1.118-1.118 0-.617.5-1.118 1.118-1.118.617 0 1.118.5 1.118 1.11" mask="url(#b)"/>
    <path fill="#F96959" d="M281.663 96.618h39.92v-9.373h-39.92" mask="url(#b)"/>
    <path fill="#E0E0E0" d="M286.732 103.74h27.402v-3.64h-27.402m-.002 10.923h30.306v-3.64H286.73m.002 10.92h13.7v-3.64h-13.7m0 10.92h27.402v-3.64h-27.402m0 10.922h23.586v-3.64h-23.586m0 10.92h27.402v-3.64h-27.402m-.002 10.92h16.01v-3.64h-16.01" mask="url(#b)"/>
    <path stroke="#C4C4C4" stroke-width="2" d="M281.663 159.64h39.92V86.47h-39.92z" mask="url(#b)"/>
    <path fill="#C4C4C4" d="M335.913 160.83h-18.088c-2.033 0-3.697-1.665-3.697-3.697v-19.677c0-2.034 1.664-3.696 3.697-3.696h18.088c2.033 0 3.696 1.662 3.696 3.696v19.677c0 2.032-1.67 3.696-3.7 3.696" mask="url(#b)"/>
    <path fill="#F8F8F8" d="M335.192 133.76h-16.767v-16.47c0-.39.32-.708.71-.708h15.348c.39 0 .71.32.71.71v16.467z" mask="url(#b)"/>
    <path stroke="#C4C4C4" stroke-width="2" d="M335.192 133.76h-16.767v-16.47c0-.39.32-.708.71-.708h15.348c.39 0 .71.32.71.71v16.467z" mask="url(#b)"/>
    <g mask="url(#b)">
      <path fill="#F8F8F8" d="M318.426 119.894h16.767"/>
      <path stroke="#C4C4C4" stroke-width="2" d="M318.426 119.894h16.767"/>
    </g>
    <g mask="url(#b)">
      <path fill="#F8F8F8" d="M318.426 123.36h16.767"/>
      <path stroke="#C4C4C4" stroke-width="2" d="M318.426 123.36h16.767"/>
    </g>
    <g mask="url(#b)">
      <path fill="#F8F8F8" d="M318.426 126.827h16.767"/>
      <path stroke="#C4C4C4" stroke-width="2" d="M318.426 126.827h16.767"/>
    </g>
    <g mask="url(#b)">
      <path fill="#F8F8F8" d="M318.426 130.293h16.767"/>
      <path stroke="#C4C4C4" stroke-width="2" d="M318.426 130.293h16.767"/>
    </g>
    <path fill="#F8F8F8" d="M318.426 160.83h16.767v16.467c0 .39-.32.71-.71.71h-15.348c-.39 0-.71-.32-.71-.71V160.83z" mask="url(#b)"/>
    <path stroke="#C4C4C4" stroke-width="2" d="M318.426 160.83h16.767v16.467c0 .39-.32.71-.71.71h-15.348c-.39 0-.71-.32-.71-.71V160.83z" mask="url(#b)"/>
    <g mask="url(#b)">
      <path fill="#F8F8F8" d="M335.192 174.694h-16.767"/>
      <path stroke="#C4C4C4" stroke-width="2" d="M335.192 174.694h-16.767"/>
    </g>
    <g mask="url(#b)">
      <path fill="#F8F8F8" d="M335.192 171.228h-16.767"/>
      <path stroke="#C4C4C4" stroke-width="2" d="M335.192 171.228h-16.767"/>
    </g>
    <g mask="url(#b)">
      <path fill="#F8F8F8" d="M335.192 167.76h-16.767"/>
      <path stroke="#C4C4C4" stroke-width="2" d="M335.192 167.76h-16.767"/>
    </g>
    <g mask="url(#b)">
      <path fill="#F8F8F8" d="M335.192 164.295h-16.767"/>
      <path stroke="#C4C4C4" stroke-width="2" d="M335.192 164.295h-16.767"/>
    </g>
    <path fill="#FFF" d="M332.13 142.3l1.403 1.377-7.21 7.21-1.377 1.376-4.86-4.833 1.404-1.377 3.456 3.457" mask="url(#b)"/>
    <path fill="#F8F8F8" d="M314.128 176.884h3.696v-16.056h-3.696" mask="url(#b)"/>
  </g>
</svg>
