<svg xmlns="http://www.w3.org/2000/svg" width="188" height="150" viewBox="0 0 188 150" xmlns:xlink="http://www.w3.org/1999/xlink">
  <defs>
    <path id="a" d="M148.585 74.572c0 41.03-33.262 74.292-74.293 74.292C33.262 148.864 0 115.602 0 74.572S33.262.28 74.292.28s74.293 33.26 74.293 74.292"/>
    <path id="c" d="M74.292.28C33.262.28 0 33.54 0 74.57c0 41.03 33.262 74.292 74.292 74.292s74.293-33.26 74.293-74.292c0-41.03-33.262-74.293-74.293-74.293z"/>
  </defs>
  <g fill="none" fill-rule="evenodd">
    <g transform="translate(0 .428)">
      <mask id="b" fill="#fff">
        <use xlink:href="#a"/>
      </mask>
      <use fill="#578AEE" xlink:href="#a"/>
      <g mask="url(#b)">
        <mask id="d" fill="#fff">
          <use xlink:href="#c"/>
        </mask>
        <path fill="#F86959" d="M148.585 74.572c0 41.03-33.262 74.292-74.293 74.292C33.262 148.864 0 115.602 0 74.572S33.262.28 74.292.28s74.293 33.26 74.293 74.292" mask="url(#d)"/>
      </g>
      <g mask="url(#b)">
        <path fill="#F8F8F8" d="M206.42 155.572l-153.89-.063c-5.818-.01-10.532-4.74-10.53-10.57l.043-104.81c.002-5.84 4.72-10.57 10.538-10.56l153.89.06c5.82 0 10.54 4.73 10.53 10.57l-.04 104.8c0 5.83-4.72 10.56-10.54 10.56"/>
        <path fill="#00B9ED" d="M216.994 51.572L217 38.19c.002-5.89-4.31-10.552-10.144-10.554L52.57 27.572c-5.832-.002-10.562 4.654-10.564 10.545L42 51.5l174.994.072z"/>
        <path fill="#C4C4C4" d="M77.42 42.767c-1.89 0-3.42-1.533-3.42-3.422l.006-14.354c0-1.88 1.532-3.42 3.42-3.41 1.89 0 3.422 1.53 3.42 3.42l-.006 14.35c0 1.89-1.53 3.42-3.42 3.42"/>
        <path fill="#E0E0E0" d="M62.538 84.396c0 1.973-1.6 3.572-3.572 3.572-1.974 0-3.573-1.6-3.573-3.572 0-1.973 1.6-3.572 3.573-3.572 1.972 0 3.572 1.6 3.572 3.572m21.195 0c0 1.973-1.6 3.572-3.572 3.572s-3.57-1.6-3.57-3.572c0-1.973 1.6-3.572 3.57-3.572 1.98 0 3.58 1.6 3.58 3.572m21.2 0c0 1.973-1.6 3.572-3.57 3.572s-3.57-1.6-3.57-3.572c0-1.973 1.6-3.572 3.57-3.572 1.98 0 3.58 1.6 3.58 3.572m21.197 0c0 1.973-1.6 3.572-3.572 3.572s-3.57-1.6-3.57-3.572c0-1.973 1.596-3.572 3.57-3.572 1.97 0 3.57 1.6 3.57 3.572m-63.59 14.23c0 1.973-1.6 3.572-3.572 3.572-1.973 0-3.572-1.6-3.572-3.572 0-1.973 1.6-3.572 3.576-3.572 1.972 0 3.572 1.6 3.572 3.572m21.195 0c0 1.973-1.6 3.572-3.57 3.572s-3.57-1.6-3.57-3.572c0-1.973 1.6-3.572 3.57-3.572 1.976 0 3.575 1.6 3.575 3.572m21.19 0c0 1.973-1.6 3.572-3.575 3.572-1.973 0-3.572-1.6-3.572-3.572 0-1.973 1.6-3.572 3.575-3.572s3.57 1.6 3.57 3.572m21.196 0c0 1.973-1.6 3.572-3.57 3.572-1.973 0-3.572-1.6-3.572-3.572 0-1.973 1.595-3.572 3.57-3.572 1.97 0 3.57 1.6 3.57 3.572M62.54 70.583c0 1.973-1.6 3.572-3.572 3.572-1.974 0-3.573-1.6-3.573-3.572 0-1.973 1.6-3.572 3.573-3.572 1.972 0 3.572 1.6 3.572 3.58m21.195 0c0 1.97-1.6 3.57-3.572 3.57s-3.57-1.6-3.57-3.57c0-1.97 1.6-3.57 3.57-3.57 1.977 0 3.576 1.6 3.576 3.58m21.19 0c0 1.97-1.6 3.57-3.58 3.57s-3.58-1.6-3.58-3.57c0-1.97 1.6-3.57 3.57-3.57s3.57 1.6 3.57 3.58m21.192 0c0 1.97-1.6 3.57-3.57 3.57-1.976 0-3.575-1.6-3.575-3.57 0-1.974 1.596-3.573 3.57-3.573 1.972 0 3.572 1.6 3.572 3.575m-63.58 42.27c0 1.975-1.6 3.574-3.577 3.574-1.97 0-3.57-1.6-3.57-3.57s1.6-3.57 3.572-3.57 3.57 1.6 3.57 3.57m21.192 0c0 1.973-1.6 3.57-3.573 3.57s-3.57-1.6-3.57-3.57 1.6-3.57 3.57-3.57c1.98 0 3.58 1.6 3.58 3.57m21.194 0c0 1.974-1.6 3.573-3.57 3.573-1.976 0-3.575-1.6-3.575-3.574s1.6-3.57 3.57-3.57 3.57 1.6 3.57 3.57m21.197 0c0 1.972-1.6 3.57-3.573 3.57-1.974 0-3.573-1.6-3.573-3.573s1.597-3.57 3.57-3.57c1.973 0 3.573 1.6 3.573 3.57M62.53 127.1c0 1.973-1.6 3.572-3.574 3.572-1.974 0-3.573-1.6-3.573-3.57s1.6-3.57 3.57-3.57 3.572 1.6 3.572 3.57m21.194 0c0 1.972-1.6 3.57-3.58 3.57s-3.57-1.6-3.57-3.57 1.6-3.57 3.57-3.57c1.97 0 3.57 1.6 3.57 3.57m21.194 0c0 1.973-1.6 3.572-3.576 3.572-1.974 0-3.57-1.6-3.57-3.572s1.6-3.57 3.57-3.57c1.972 0 3.57 1.6 3.57 3.57m21.196 0c0 1.976-1.6 3.575-3.57 3.575-1.972 0-3.57-1.6-3.57-3.572s1.596-3.57 3.57-3.57c1.972 0 3.572 1.6 3.572 3.57m21.2-42.69c0 1.974-1.6 3.573-3.57 3.573-1.975 0-3.574-1.6-3.574-3.572s1.6-3.57 3.573-3.57 3.57 1.6 3.57 3.57m0 14.23c0 1.974-1.6 3.573-3.573 3.573-1.974 0-3.57-1.6-3.57-3.58s1.6-3.57 3.57-3.57c1.972 0 3.57 1.6 3.57 3.57m0-28.04c0 1.97-1.6 3.57-3.572 3.57-1.974 0-3.57-1.6-3.57-3.58 0-1.976 1.6-3.575 3.57-3.575 1.972 0 3.57 1.6 3.57 3.576m-73.4 68.7c-.45 0-.816-.366-.816-.816l.03-72.297c0-.45.363-.82.814-.82.45.004.818.37.818.82l-.03 72.295c0 .45-.364.815-.814.815m21.222.01c-.45 0-.818-.367-.817-.82l.03-72.29c0-.45.363-.82.815-.82.45 0 .82.37.82.82l-.03 72.293c0 .45-.367.816-.82.816m21.225.006c-.45 0-.816-.367-.816-.818l.03-72.292c0-.45.36-.815.814-.815.45 0 .818.362.818.813l-.03 72.297c0 .45-.363.82-.814.82m21.245.01c-.45 0-.82-.364-.82-.814V66.2c0-.45.37-.816.82-.816.45 0 .82.366.82.817v72.3c0 .45-.368.82-.82.82"/>
      </g>
    </g>
    <path fill="#F96959" d="M179.874 59.66c-.222 0-.45-.044-.67-.134-.904-.37-1.336-1.403-.966-2.308l4.64-11.316-11.317-4.64c-.9-.37-1.33-1.403-.96-2.308.37-.903 1.41-1.335 2.31-.965l14.59 5.98-5.98 14.59c-.28.68-.94 1.1-1.64 1.1"/>
    <path fill="#E44232" d="M184.024 43.166L153.937 57.13l-30.654 4.6L93.22 92.582 63.26 86.59l-30.61 15.034-26.113 3.867c.51 1.13 1.04 2.25 1.602 3.34l25.57-3.78L63.73 90.3l30.675 6.13 30.572-31.38 29.98-4.495 30.546-14.18-1.49-3.208z"/>
    <path fill="#FFF" d="M37.73 103.333c0 2.512-2.036 4.547-4.547 4.547-2.512 0-4.547-2.035-4.547-4.547 0-2.512 2.035-4.548 4.547-4.548 2.51 0 4.548 2.036 4.548 4.548"/>
    <path fill="#E44332" d="M33.183 99.922c-1.88 0-3.41 1.53-3.41 3.41 0 1.882 1.53 3.412 3.41 3.412 1.88 0 3.41-1.53 3.41-3.41 0-1.882-1.53-3.412-3.41-3.412m0 9.095c-3.135 0-5.684-2.55-5.684-5.684 0-3.135 2.54-5.685 5.68-5.685s5.68 2.55 5.68 5.685c0 3.134-2.55 5.684-5.69 5.684"/>
    <path fill="#FFF" d="M68.048 88.443c0 2.512-2.037 4.548-4.548 4.548-2.51 0-4.547-2.03-4.547-4.54S60.99 83.9 63.5 83.9s4.548 2.034 4.548 4.546"/>
    <path fill="#E44332" d="M63.5 85.033c-1.88 0-3.41 1.53-3.41 3.41 0 1.88 1.53 3.41 3.41 3.41 1.88 0 3.41-1.53 3.41-3.41 0-1.88-1.53-3.41-3.41-3.41m0 9.094c-3.135 0-5.684-2.55-5.684-5.684 0-3.134 2.55-5.684 5.684-5.684 3.135 0 5.684 2.55 5.684 5.68s-2.55 5.68-5.684 5.68"/>
    <path fill="#FFF" d="M98.365 94.507c0 2.51-2.037 4.547-4.548 4.547-2.51 0-4.547-2.036-4.547-4.547 0-2.512 2.036-4.548 4.547-4.548 2.51 0 4.548 2.03 4.548 4.54"/>
    <path fill="#E44332" d="M93.817 91.096c-1.88 0-3.41 1.53-3.41 3.41 0 1.88 1.53 3.41 3.41 3.41 1.88 0 3.41-1.53 3.41-3.41 0-1.88-1.53-3.41-3.41-3.41m0 9.095c-3.134 0-5.684-2.55-5.684-5.68s2.55-5.68 5.684-5.68c3.135 0 5.684 2.55 5.684 5.69 0 3.14-2.54 5.69-5.68 5.69"/>
    <path fill="#FFF" d="M128.682 63.39c0 2.512-2.036 4.547-4.548 4.547-2.51 0-4.547-2.035-4.547-4.547 0-2.512 2.036-4.547 4.547-4.547 2.512 0 4.548 2.035 4.548 4.547"/>
    <path fill="#E44332" d="M124.134 59.98c-1.88 0-3.41 1.53-3.41 3.41 0 1.88 1.53 3.41 3.41 3.41 1.88 0 3.41-1.53 3.41-3.41 0-1.88-1.53-3.41-3.41-3.41m0 9.094c-3.135 0-5.684-2.55-5.684-5.684 0-3.134 2.55-5.684 5.684-5.684 3.135 0 5.684 2.55 5.684 5.684 0 3.134-2.55 5.684-5.684 5.684"/>
    <path fill="#FFF" d="M159 58.843c0 2.51-2.037 4.547-4.548 4.547-2.512 0-4.548-2.036-4.548-4.547 0-2.512 2.036-4.548 4.548-4.548 2.51 0 4.547 2.036 4.547 4.548"/>
    <path fill="#E44332" d="M154.45 55.432c-1.88 0-3.41 1.53-3.41 3.41 0 1.882 1.53 3.412 3.41 3.412 1.882 0 3.412-1.53 3.412-3.412 0-1.88-1.53-3.41-3.41-3.41m0 9.095c-3.135 0-5.685-2.55-5.685-5.685 0-3.134 2.55-5.684 5.684-5.684 3.14 0 5.69 2.55 5.69 5.684 0 3.135-2.55 5.685-5.68 5.685"/>
  </g>
</svg>
