<svg xmlns="http://www.w3.org/2000/svg" width="150" height="150" viewBox="0 0 150 150">
  <g fill="none" fill-rule="evenodd">
    <path fill="#F96959" d="M150 75c0 41.42-33.58 75-75 75S0 116.42 0 75 33.58 0 75 0s75 33.58 75 75"/>
    <path fill="#FFF" d="M113.715 63.1h-28.31C76.57 63.1 69 70.174 69 79.013v11.164c0 8.837 7.57 15.922 16.406 15.922h24.788l7.805 7.87v-8.49c7-2.08 12-8.168 12-15.305V79.012c0-8.837-7.45-15.913-16.287-15.913"/>
    <path fill="#9AA5AF" d="M107.376 76.186c1.084 1.085 1.535 2.317 1.35 3.696-.183 1.378-.796 2.59-1.838 3.63L96.662 93.738c-.65.65-1.487.988-2.507 1.01-1.02.02-1.846-.283-2.475-.912-.63-.63-.94-1.45-.928-2.46.01-1.008.354-1.85 1.026-2.522l10.224-10.225c.544-.545 1.124-.854 1.743-.93.618-.076 1.144.103 1.58.537.433.435.612.96.537 1.58-.076.618-.385 1.2-.928 1.742l-8.858 8.855-.976-.977 8.857-8.86c.586-.585.716-1.04.39-1.367-.325-.324-.78-.194-1.367.39L92.755 89.83c-.39.39-.59.906-.602 1.546-.012.64.156 1.135.504 1.482.347.347.853.505 1.514.472.665-.032 1.17-.222 1.518-.57l10.224-10.224c.804-.804 1.28-1.704 1.434-2.703.15-1-.163-1.89-.945-2.67-1.627-1.628-3.42-1.465-5.373.488l-8.857 8.86-.977-.977 8.857-8.856c1.215-1.215 2.474-1.866 3.776-1.953 1.303-.086 2.486.402 3.55 1.466"/>
    <path fill="#E0E0E0" d="M69 79.013v10.254c7-1.9 12-8.316 12-15.71V63.514c-6 1.75-12 8.02-12 15.5"/>
    <path fill="#FFF" d="M65.268 43.1h-28.31C28.123 43.1 21 49.855 21 58.694V69.86c0 7.136 5 13.224 11 15.302v8.488l8.48-7.55h24.788C74.105 86.1 81 78.696 81 69.86V58.693C81 49.856 74.105 43.1 65.268 43.1"/>
    <path fill="#9AA5AF" d="M60.56 64.276c0 1.248 1.012 2.26 2.26 2.26 1.25 0 2.26-1.012 2.26-2.26 0-1.248-1.01-2.26-2.26-2.26-1.248 0-2.26 1.012-2.26 2.26m-11.707 0c0 1.248 1.012 2.26 2.26 2.26 1.25 0 2.26-1.012 2.26-2.26 0-1.248-1.01-2.26-2.26-2.26-1.248 0-2.26 1.012-2.26 2.26m-11.708 0c0 1.248 1.012 2.26 2.26 2.26 1.25 0 2.26-1.012 2.26-2.26 0-1.248-1.01-2.26-2.26-2.26-1.248 0-2.26 1.012-2.26 2.26"/>
  </g>
</svg>
