<svg xmlns="http://www.w3.org/2000/svg" width="150" height="149" viewBox="0 0 150 149" xmlns:xlink="http://www.w3.org/1999/xlink">
  <defs>
    <path id="a" d="M1.37 74.124c0 40.838 33.137 73.945 74.012 73.945s74.01-33.11 74.01-73.95S116.257.173 75.382.173C34.507.174 1.37 33.284 1.37 74.124z"/>
  </defs>
  <g fill="none" fill-rule="evenodd">
    <g transform="translate(0 .375)">
      <path fill="#F86959" d="M148.393 74.123c0 40.84-33.136 73.946-74.01 73.946C33.505 148.07.37 114.96.37 74.12.37 33.282 33.506.178 74.382.178c40.875 0 74.01 33.106 74.01 73.945"/>
      <mask id="b" fill="#fff">
        <use xlink:href="#a"/>
      </mask>
      <path fill="#E44232" d="M71 254.625h128v-192H71" mask="url(#b)"/>
      <path fill="#FBFBFB" d="M76.655 251.893H196.31V58.235H76.655" mask="url(#b)"/>
      <path fill="#E44232" d="M101.26 41.852L76.1 48.514H0V35.19h76.1" mask="url(#b)"/>
      <path fill="#C4C4C4" d="M89.864 101.226h74.27v-3.318h-74.27m0 9.954h74.27v-3.318h-74.27m0 9.954h74.27v-3.318h-74.27m0 9.954h74.27v-3.318h-74.27m0 9.954h74.27v-3.318h-74.27m0 9.955h74.27v-3.318h-74.27m0 9.95h74.27v-3.32h-74.27" mask="url(#b)"/>
      <path fill="#E44232" d="M102.633 87.625h2.215l-6.235-16.91h-2.086l-6.234 16.91h2.215l1.7-4.84h6.726l1.7 4.84zM97.535 73.28h.07l2.707 7.712H94.83l2.707-7.71zM111 85.974c-1.594 0-2.613-.762-2.613-1.934 0-1.22.984-1.91 2.883-2.028l3.304-.21v1.018c0 1.817-1.51 3.153-3.574 3.153zm-.434 1.77c1.77 0 3.352-.903 4.067-2.31h.047v2.192h1.933v-8.672c0-2.484-1.922-4.078-4.91-4.078-2.648 0-4.723 1.63-4.78 3.762h1.956c.24-1.196 1.33-1.946 2.8-1.946 1.86 0 2.89.87 2.89 2.44v1.054l-3.54.21c-3.07.188-4.735 1.465-4.735 3.633 0 2.24 1.7 3.71 4.265 3.71z" mask="url(#b)"/>
    </g>
    <path fill="#FFB95D" d="M0 29.32v13.323h76.1l25.16-6.662-25.16-6.66"/>
    <path fill="#223A50" d="M89.026 32.768l12.234 3.214-12.234 3.213"/>
    <path fill="#FFE98A" d="M0 35.985h76.1V29.32H0"/>
    <path fill="#FECF05" d="M0 42.643h76.1v-6.665H0"/>
  </g>
</svg>
