<svg xmlns="http://www.w3.org/2000/svg" width="163" height="23" viewBox="0 0 163 23">
  <g fill="none" fill-rule="evenodd">
    <path fill="#E44332" d="M20.125 0H2.875C1.295 0 0 1.294 0 2.875V6.58l.007-.004 3.92 2.278c.297.17.665.17.963 0 .248-.14 7.685-4.417 7.796-4.48.268-.156.557-.104.717-.01.158.092.58.333.804.46.223.127.213.48.014.595l-9.3 5.35c-.33.19-.66.19-1 0C3.34 10.45.96 9.06.01 8.51v1.943l.007-.004 3.92 2.27c.296.17.664.16.96 0l7.796-4.49c.27-.16.56-.1.72-.01.157.09.58.33.803.46.22.12.21.48.01.59l-9.3 5.36c-.334.19-.66.19-1.007 0-.58-.33-2.95-1.71-3.91-2.27v1.94h.01l3.92 2.28c.29.17.66.17.96 0 .25-.14 7.68-4.42 7.79-4.48.27-.16.56-.11.72-.01.16.09.58.33.8.46.23.13.22.48.02.59l-9.32 5.37c-.33.19-.66.19-1 0-.58-.32-2.96-1.7-3.91-2.26v3.86C0 21.7 1.3 23 2.88 23h17.25c1.575 0 2.87-1.294 2.87-2.875V2.875C23 1.295 21.706 0 20.125 0m17.62 14.12c0-.76.136-1.447.407-2.065.27-.618.637-1.146 1.1-1.585.46-.438 1.008-.777 1.64-1.017.636-.24 1.31-.36 2.023-.36.712 0 1.386.12 2.02.36.633.24 1.18.58 1.643 1.017.463.44.83.967 1.1 1.585.27.618.406 1.306.406 2.064 0 .75-.136 1.44-.407 2.06-.27.62-.636 1.14-1.1 1.58-.46.44-1.01.78-1.643 1.01-.633.24-1.307.36-2.02.36-.713 0-1.386-.12-2.02-.36-.634-.24-1.182-.58-1.643-1.02-.46-.44-.83-.97-1.09-1.59-.27-.62-.4-1.31-.4-2.07m2.38 0c0 .37.07.73.19 1.07.13.35.31.65.56.92.25.26.54.48.88.64.34.16.74.24 1.17.24.44 0 .83-.08 1.17-.24.34-.16.64-.37.88-.64s.43-.57.56-.92c.13-.35.19-.71.19-1.08 0-.38-.06-.74-.19-1.08-.12-.35-.31-.65-.55-.92-.24-.27-.54-.48-.88-.64-.34-.16-.73-.24-1.16-.24-.44 0-.83.08-1.17.24-.34.16-.64.37-.88.64-.25.26-.43.57-.56.91-.12.34-.19.7-.19 1.08m17.1 3.34h-.04c-.34.59-.8 1.01-1.38 1.28-.58.26-1.21.39-1.88.39-.74 0-1.4-.13-1.97-.39-.57-.26-1.06-.61-1.47-1.07-.41-.45-.72-.99-.93-1.6-.21-.61-.31-1.27-.31-1.977s.11-1.36.34-1.976c.226-.61.54-1.14.94-1.59.405-.45.89-.805 1.457-1.065.57-.26 1.19-.39 1.86-.39.45 0 .847.05 1.19.14.34.093.647.21.91.36s.49.3.67.47c.18.165.338.33.45.49h.06V5.27c0-.24.19-.52.52-.52H59c.31 0 .52.26.52.52v13.11c0 .334-.28.52-.52.52h-1.22c-.29 0-.52-.244-.52-.52v-.914zm-5.62-3.35c0 .37.07.73.19 1.08.13.34.31.65.56.91.25.26.54.48.88.64.34.16.73.24 1.17.24.43 0 .82-.08 1.17-.24.34-.16.63-.37.88-.64s.43-.57.55-.92c.13-.35.19-.71.19-1.08 0-.38-.07-.74-.19-1.08-.12-.35-.31-.65-.55-.92-.24-.27-.53-.48-.88-.64-.34-.16-.73-.24-1.17-.24-.43 0-.82.08-1.16.24-.35.16-.64.37-.89.64s-.43.57-.554.91c-.13.35-.19.71-.19 1.08zm9.44 0c0-.76.14-1.45.41-2.07.27-.62.64-1.15 1.1-1.59.46-.44 1.01-.78 1.64-1.02.64-.24 1.31-.36 2.02-.36.72 0 1.39.12 2.02.36.64.24 1.18.58 1.65 1.02.46.44.83.96 1.1 1.58.27.62.41 1.31.41 2.06 0 .752-.13 1.44-.41 2.06-.27.62-.64 1.14-1.1 1.58-.46.44-1.01.78-1.64 1.01-.63.24-1.31.36-2.02.36s-1.38-.12-2.02-.36c-.63-.24-1.18-.58-1.64-1.02-.46-.44-.83-.97-1.1-1.59-.27-.616-.4-1.3-.4-2.06m2.377 0c0 .37.066.73.19 1.075.127.35.31.657.556.92.24.27.54.48.88.64.34.16.73.24 1.16.24.436 0 .826-.08 1.17-.24.34-.16.637-.37.88-.64.244-.26.43-.57.555-.913.13-.35.19-.71.19-1.08s-.06-.73-.19-1.08c-.12-.34-.31-.65-.55-.91-.25-.27-.54-.48-.887-.64-.34-.16-.73-.24-1.17-.24-.43 0-.82.08-1.17.24-.34.16-.64.37-.88.64-.24.262-.43.57-.55.912-.12.35-.183.71-.183 1.08M72.62 6c0-.38.144-.72.43-1.002.284-.283.643-.43 1.08-.43.434 0 .8.14 1.1.41.294.27.444.618.444 1.03 0 .41-.15.755-.45 1.028-.295.277-.662.41-1.1.41-.433 0-.792-.14-1.08-.43-.28-.283-.423-.62-.423-1.003m9.82 5.9c-.24 0-.41-.18-.44-.26-.2-.52-.83-.71-1.332-.71-.8 0-1.43.37-1.43 1.01 0 .62.61.75.988.865.41.127 1.2.3 1.637.4.446.107.857.26 1.24.46 1.27.66 1.44 1.7 1.44 2.32 0 2.31-2.26 3.07-3.84 3.07-1.214 0-3.5-.182-4-2.512-.043-.23.157-.58.52-.58h1.31c.26 0 .437.19.49.34.17.463.71.82 1.61.82.97 0 1.55-.39 1.55-.9 0-.337-.19-.63-.436-.8-.735-.5-2.553-.56-3.54-1.09-.38-.2-1.326-.66-1.326-2.24 0-2.175 1.96-3.09 3.688-3.09 2.54 0 3.473 1.62 3.58 2.22.06.33-.13.67-.5.67h-1.2m2.33-1.18v-.99c0-.24.19-.52.515-.52h1.264v-2.4c0-.26.175-.42.31-.48l1.36-.593c.4-.164.72.16.72.48v3.02H91c.325 0 .518.286.518.52v.99c0 .288-.254.52-.516.52h-2.1v4.19c0 .48-.01.85.17 1.13.166.25.41.347.9.347.14 0 .266-.026.37-.06.31-.11.545.074.624.23.15.3.33.63.45.87.14.26.03.59-.22.713-.402.2-.96.36-1.723.36-.63 0-.99-.07-1.39-.21-.4-.14-.78-.44-1.01-.72-.234-.29-.35-.67-.434-1.1-.09-.43-.11-.94-.11-1.5V11.3h-1.27c-.34 0-.52-.29-.52-.53m-54.42 0V9.8c0-.235.18-.52.51-.52h1.44V6.86c0-.26.17-.418.31-.476l1.35-.594c.39-.164.71.164.71.48v3.02h2.09c.32 0 .51.286.51.52v.992c0 .287-.25.522-.51.522h-2.1v4.188c0 .478-.02.852.16 1.13.16.252.41.346.9.346.14 0 .26-.024.37-.06.31-.107.54.076.62.23.15.3.33.632.45.87.14.26.03.593-.22.715-.4.197-.96.356-1.72.356-.63 0-.99-.07-1.39-.21-.4-.14-.78-.44-1.01-.72-.23-.29-.35-.67-.43-1.1-.09-.43-.11-.94-.11-1.5v-4.25H30.8c-.335 0-.52-.29-.52-.53m43.13 8.1h1.342c.284 0 .516-.23.516-.52V9.85c0-.285-.234-.52-.52-.52h-1.34c-.285 0-.52.235-.52.52v8.53c0 .287.235.52.52.52"/>
    <path fill="#8C8E90" d="M97 19h4.4c2.512 0 3.92-1.072 3.92-3.2v-.064c0-1.52-.736-2.368-2.288-2.704 1.296-.4 1.808-1.296 1.808-2.432v-.064c0-2.08-1.392-2.976-3.744-2.976H97V19zm2.08-1.52v-3.664H101c1.568 0 2.224.592 2.224 1.776v.064c0 1.184-.656 1.824-2.08 1.824H99.08zm0-5.104V9.08h1.728c1.36 0 1.984.464 1.984 1.552v.064c0 1.168-.544 1.68-1.952 1.68h-1.76zm10.88 6.784c1.36 0 2.24-.656 2.656-1.472V19h1.936v-8.368h-1.936v4.976c0 1.328-.912 2-1.952 2-1.12 0-1.648-.576-1.648-1.84v-5.136h-1.936v5.36c0 2.224 1.232 3.168 2.88 3.168zm9.744 0c2.144 0 3.344-.976 3.344-2.672 0-1.776-1.168-2.256-3.136-2.56-1.328-.224-1.728-.464-1.728-1.072 0-.592.496-.992 1.328-.992.896 0 1.328.352 1.488 1.12h1.792c-.208-1.888-1.568-2.528-3.28-2.528-1.568 0-3.136.832-3.136 2.512 0 1.568.816 2.192 3.024 2.544 1.232.208 1.792.464 1.792 1.152 0 .704-.464 1.072-1.504 1.072-1.136 0-1.568-.496-1.664-1.344H116.2c.08 1.776 1.344 2.768 3.504 2.768zm5.088-.16h1.936v-8.368h-1.936V19zm.944-9.744c.64 0 1.152-.48 1.152-1.104 0-.64-.512-1.12-1.152-1.12-.64 0-1.152.48-1.152 1.12 0 .624.512 1.104 1.152 1.104zM129.08 19h1.936v-4.928c0-1.328.88-2 1.968-2 1.152 0 1.664.576 1.664 1.84V19h1.936v-5.264c0-2.304-1.184-3.28-2.864-3.28-1.376 0-2.304.688-2.704 1.504v-1.328h-1.936V19zm13.408.16c2.144 0 3.568-.96 3.84-2.72h-1.872c-.144.816-.752 1.28-1.92 1.28-1.44 0-2.24-.896-2.304-2.48h6.128v-.56c0-2.992-1.872-4.224-3.952-4.224-2.384 0-4.16 1.728-4.16 4.32v.128c0 2.64 1.776 4.256 4.24 4.256zm-2.224-5.216c.192-1.296.976-2.08 2.144-2.08 1.2 0 1.936.64 2.032 2.08h-4.176zm10.768 5.216c2.144 0 3.344-.976 3.344-2.672 0-1.776-1.168-2.256-3.136-2.56-1.328-.224-1.728-.464-1.728-1.072 0-.592.496-.992 1.328-.992.896 0 1.328.352 1.488 1.12h1.792c-.208-1.888-1.568-2.528-3.28-2.528-1.568 0-3.136.832-3.136 2.512 0 1.568.816 2.192 3.024 2.544 1.232.208 1.792.464 1.792 1.152 0 .704-.464 1.072-1.504 1.072-1.136 0-1.568-.496-1.664-1.344h-1.824c.08 1.776 1.344 2.768 3.504 2.768zm7.904 0c2.144 0 3.344-.976 3.344-2.672 0-1.776-1.168-2.256-3.136-2.56-1.328-.224-1.728-.464-1.728-1.072 0-.592.496-.992 1.328-.992.896 0 1.328.352 1.488 1.12h1.792c-.208-1.888-1.568-2.528-3.28-2.528-1.568 0-3.136.832-3.136 2.512 0 1.568.816 2.192 3.024 2.544 1.232.208 1.792.464 1.792 1.152 0 .704-.464 1.072-1.504 1.072-1.136 0-1.568-.496-1.664-1.344h-1.824c.08 1.776 1.344 2.768 3.504 2.768z"/>
  </g>
</svg>
